<?xml version="1.0"?><svg xmlns="http://www.w3.org/2000/svg" xmlns:xlink="http://www.w3.org/1999/xlink" version="1.1" id="Layer_1" viewBox="0 0 64 64" style="enable-background:new 0 0 64 64;" xml:space="preserve"><style type="text/css">
	.st0{fill:#FFC650;}
</style><g><path d="M26.26,42.59H13.5c-1,0-1.82-0.81-1.82-1.82V23.22c0-1,0.81-1.82,1.82-1.82h12.17c0.37,0,0.66-0.3,0.66-0.66   c0-0.37-0.3-0.66-0.66-0.66H13.5c-1.73,0-3.14,1.41-3.14,3.14v17.55c0,1.73,1.41,3.14,3.14,3.14h12.76c0.37,0,0.66-0.3,0.66-0.66   C26.92,42.89,26.63,42.59,26.26,42.59z"/><path d="M50.38,26.43h-1.99v-3.21c0-1.73-1.41-3.14-3.14-3.14H31.85c-0.37,0-0.66,0.3-0.66,0.66c0,0.37,0.3,0.66,0.66,0.66h13.39   c1,0,1.82,0.81,1.82,1.82v17.55c0,1-0.81,1.82-1.82,1.82H32.58c-0.37,0-0.66,0.3-0.66,0.66c0,0.37,0.3,0.66,0.66,0.66h12.66   c1.73,0,3.14-1.41,3.14-3.14v-3.21h1.99c0,0,0,0,0,0c0.87,0,1.69-0.34,2.31-0.96c0.62-0.62,0.96-1.44,0.96-2.31v-4.61   C53.64,27.89,52.18,26.43,50.38,26.43z M52.31,34.31c0,0.52-0.2,1-0.57,1.37c-0.37,0.37-0.85,0.57-1.37,0.57H48.4v-8.48h1.98   c1.07,0,1.94,0.87,1.94,1.94V34.31z"/><path class="st0" d="M52.31,29.69v4.61c0,0.52-0.2,1-0.57,1.37c-0.37,0.37-0.85,0.57-1.37,0.57H48.4v-8.48h1.98   C51.44,27.76,52.31,28.63,52.31,29.69z"/><path d="M36.8,29.09c-0.26-0.42-0.71-0.68-1.18-0.68h-5.47c-0.01,0-0.02-0.01-0.03-0.02c-0.04-0.04-0.07-0.12-0.06-0.22l0.59-8.05   c0.06-0.77-0.39-1.44-1.09-1.62c-0.65-0.17-1.3,0.15-1.61,0.79l-6.1,12.87c-0.24,0.5-0.2,1.11,0.09,1.58   c0.26,0.42,0.7,0.67,1.17,0.67l5.35,0.04c0.01,0,0.02,0.01,0.04,0.03c0.04,0.04,0.07,0.13,0.06,0.23l-1.22,9.07   c-0.05,0.4,0.02,0.77,0.22,1.09c0.19,0.3,0.48,0.52,0.81,0.62c0.14,0.04,0.27,0.06,0.4,0.06c0.52,0,0.99-0.3,1.24-0.83l6.87-14.04   C37.13,30.18,37.1,29.57,36.8,29.09z M35.69,30.1l-6.87,14.04c-0.03,0.05-0.05,0.07-0.06,0.08c-0.01,0-0.03-0.01-0.06-0.03   c-0.05-0.05-0.06-0.13-0.05-0.23l1.22-9.07c0.06-0.47-0.07-0.94-0.37-1.28c-0.27-0.31-0.64-0.48-1.03-0.49l-5.35-0.04   c-0.01,0-0.04-0.02-0.06-0.05c-0.04-0.07-0.07-0.18-0.01-0.3l6.1-12.87c0.01-0.03,0.03-0.05,0.04-0.06   c0.01-0.01,0.02-0.02,0.02-0.02h0c0.01,0,0.03,0.01,0.05,0.03c0.05,0.04,0.07,0.12,0.06,0.22l-0.59,8.05   c-0.03,0.45,0.12,0.9,0.42,1.22c0.27,0.29,0.63,0.45,1.01,0.45h5.47c0.01,0,0.04,0.02,0.06,0.05   C35.72,29.86,35.75,29.98,35.69,30.1z"/><path class="st0" d="M35.69,30.1l-6.87,14.04c-0.03,0.05-0.05,0.07-0.06,0.08c-0.01,0-0.03-0.01-0.06-0.03   c-0.05-0.05-0.06-0.13-0.05-0.23l1.22-9.07c0.06-0.47-0.07-0.94-0.37-1.28c-0.27-0.31-0.64-0.48-1.03-0.49l-5.35-0.04   c-0.01,0-0.04-0.02-0.06-0.05c-0.04-0.07-0.07-0.18-0.01-0.3l6.1-12.87c0.01-0.03,0.03-0.05,0.04-0.06   c0.01-0.01,0.02-0.02,0.02-0.02h0c0.01,0,0.03,0.01,0.05,0.03c0.05,0.04,0.07,0.12,0.06,0.22l-0.59,8.05   c-0.03,0.45,0.12,0.9,0.42,1.22c0.27,0.29,0.63,0.45,1.01,0.45h5.47c0.01,0,0.04,0.02,0.06,0.05   C35.72,29.86,35.75,29.98,35.69,30.1z"/><path d="M14.17,25.03c0-0.37-0.3-0.66-0.66-0.66c-0.37,0-0.66,0.3-0.66,0.66v4.96c0,0.37,0.3,0.66,0.66,0.66   c0.37,0,0.66-0.3,0.66-0.66V25.03z"/><path d="M13.51,31.45c-0.37,0-0.66,0.3-0.66,0.66v1.7c0,0.37,0.3,0.66,0.66,0.66c0.37,0,0.66-0.3,0.66-0.66v-1.7   C14.17,31.75,13.87,31.45,13.51,31.45z"/></g></svg>